HIERARCHY
ROOT Hips
{
	OFFSET 56.877701 -32.693596 43.373703
	CHANNELS 6 Xposition Yposition Zposition Zrotation Xrotation Yrotation
	JOINT Chest
	{
		OFFSET -0.779999 1.005800 5.403099
		CHANNELS 6 Xposition Yposition Zposition Zrotation Xrotation Yrotation
		JOINT Chest2
		{
			OFFSET 0.000000 0.000000 4.236801
			CHANNELS 6 Xposition Yposition Zposition Zrotation Xrotation Yrotation
			JOINT Neck
			{
				OFFSET 0.000000 0.000000 9.874401
				CHANNELS 6 Xposition Yposition Zposition Zrotation Xrotation Yrotation
				JOINT Head
				{
					OFFSET 0.000000 0.000002 2.173893
					CHANNELS 6 Xposition Yposition Zposition Zrotation Xrotation Yrotation
					End Site
					{
						OFFSET 0.000000 0.000000 6.508102
					}
				}
			}
			JOINT LeftCollar
			{
				OFFSET 2.681599 -0.377600 5.432499
				CHANNELS 6 Xposition Yposition Zposition Zrotation Xrotation Yrotation
				JOINT LeftShoulder
				{
					OFFSET 5.161499 0.000000 0.000000
					CHANNELS 6 Xposition Yposition Zposition Zrotation Xrotation Yrotation
					JOINT LeftElbow
					{
						OFFSET 0.000000 0.000000 -10.869099
						CHANNELS 6 Xposition Yposition Zposition Zrotation Xrotation Yrotation
						JOINT LeftWrist
						{
							OFFSET 0.000000 0.000000 -13.344799
							CHANNELS 6 Xposition Yposition Zposition Zrotation Xrotation Yrotation
							End Site
							{
								OFFSET 0.000000 0.000000 -2.173901
							}
						}
					}
				}
			}
			JOINT RightCollar
			{
				OFFSET -2.381901 -1.419600 6.136600
				CHANNELS 6 Xposition Yposition Zposition Zrotation Xrotation Yrotation
				JOINT RightShoulder
				{
					OFFSET -4.550499 0.000000 0.000000
					CHANNELS 6 Xposition Yposition Zposition Zrotation Xrotation Yrotation
					JOINT RightElbow
					{
						OFFSET 0.000000 0.000000 -11.106499
						CHANNELS 6 Xposition Yposition Zposition Zrotation Xrotation Yrotation
						JOINT RightWrist
						{
							OFFSET 0.000000 0.000000 -12.874298
							CHANNELS 6 Xposition Yposition Zposition Zrotation Xrotation Yrotation
							End Site
							{
								OFFSET 0.000000 0.000000 -2.173901
							}
						}
					}
				}
			}
		}
	}
	JOINT LeftHip
	{
		OFFSET 2.431900 0.469601 -2.489399
		CHANNELS 6 Xposition Yposition Zposition Zrotation Xrotation Yrotation
		JOINT LeftKnee
		{
			OFFSET 0.000000 -0.000004 -18.200201
			CHANNELS 6 Xposition Yposition Zposition Zrotation Xrotation Yrotation
			JOINT LeftAnkle
			{
				OFFSET 0.000000 0.000000 -16.279900
				CHANNELS 6 Xposition Yposition Zposition Zrotation Xrotation Yrotation
				End Site
				{
					OFFSET 0.000000 -8.394100 0.000000
				}
			}
		}
	}
	JOINT RightHip
	{
		OFFSET -1.987999 -0.073502 -2.713001
		CHANNELS 6 Xposition Yposition Zposition Zrotation Xrotation Yrotation
		JOINT RightKnee
		{
			OFFSET 0.000000 -0.000004 -19.547802
			CHANNELS 6 Xposition Yposition Zposition Zrotation Xrotation Yrotation
			JOINT RightAnkle
			{
				OFFSET 0.000000 0.000000 -14.881199
				CHANNELS 6 Xposition Yposition Zposition Zrotation Xrotation Yrotation
				End Site
				{
					OFFSET 0.000000 -7.922699 0.000000
				}
			}
		}
	}
}
MOTION
Frames: 8
Frame Time: 0.041667
68.449402 -40.490097 42.935604 4338.535724 14.243515 -15.515608 -0.779999 1.005795 5.403101 14.402407 -11.834486 3.862386 0.000001 -0.000007 4.236803 -5.229177 0.833387 -0.095630 0.000005 -0.000001 9.874399 -28.618976 -9.097513 33.507757 0.000007 -0.000000 2.173892 -3.087707 3.979387 -5.151487 2.681599 -0.377597 5.432497 0.088255 -0.948867 0.498791 5.161509 -0.000004 0.000000 159.198213 -170.089045 96.518120 0.000001 0.000003 -10.869091 -3.985409 -7.122120 4.202901 -0.000002 0.000005 -13.344802 -49.512441 -32.115109 14.318552 -2.381898 -1.419593 6.136596 26.492352 21.783305 33.860482 -4.550499 0.000005 0.000003 -1167.543576 -527.952968 -430.292137 0.000003 0.000007 -11.106514 728.947950 -23.191813 715.158618 -0.000001 0.000003 -12.874298 -285.341999 2.183577 58.387387 2.431898 0.469588 -2.489386 -336.840314 -28.206612 25.863438 -0.000002 -0.000007 -18.200205 332.115216 51.051201 18.533696 0.000005 0.000006 -16.279896 -8.880377 39.683218 -12.403876 -1.987995 -0.073505 -2.712992 -48.196076 -37.899596 -26.850256 0.000002 0.000003 -19.547800 -1827.201716 37.024714 9.937250 0.000007 0.000009 -14.881193 2247.554288 79.676691 -410.068684
68.451698 -40.494396 42.947800 4338.248528 14.077477 -15.474731 -0.780000 1.005806 5.403092 14.583846 -11.587867 3.750997 0.000007 0.000003 4.236792 -5.299557 0.813258 -0.093973 -0.000004 0.000007 9.874409 -28.575509 -9.220563 33.590423 -0.000000 0.000008 2.173885 -3.103114 3.958867 -5.265214 2.681600 -0.377596 5.432510 0.142730 -0.877733 0.740000 5.161506 -0.000007 0.000000 159.185263 -170.074429 96.316042 0.000009 -0.000005 -10.869091 -3.982804 -7.136546 4.284645 -0.000002 -0.000007 -13.344809 -49.436971 -32.135149 14.399014 -2.381896 -1.419597 6.136600 26.607991 21.963819 33.823110 -4.550501 -0.000002 0.000016 -1167.586961 -527.799371 -430.183236 0.000002 0.000003 -11.106503 729.059146 -23.082163 715.159164 0.000003 -0.000003 -12.874298 -285.117231 2.172473 58.465408 2.431889 0.469608 -2.489400 -336.867416 -27.984262 25.663288 0.000001 -0.000014 -18.200203 332.756954 50.964488 18.146604 0.000013 0.000000 -16.279898 -9.241292 39.947656 -12.645075 -1.987997 -0.073486 -2.712997 -47.959976 -37.724904 -26.731899 0.000010 0.000005 -19.547796 -1826.797587 37.103848 9.928973 -0.000005 -0.000000 -14.881192 2246.826026 79.552545 -409.513800
68.452202 -40.496296 42.958904 4338.056190 13.985018 -15.405075 -0.779998 1.005803 5.403103 14.639834 -11.474732 3.588435 0.000004 -0.000006 4.236800 -5.328494 0.813145 -0.090766 0.000004 0.000002 9.874393 -28.495886 -9.362742 33.718964 0.000011 0.000007 2.173902 -3.160212 3.976575 -5.396086 2.681601 -0.377598 5.432498 0.285095 -1.009887 0.851604 5.161501 -0.000001 0.000003 159.150170 -170.331667 96.328070 -0.000003 0.000000 -10.869102 -3.854308 -7.172711 4.374258 0.000000 -0.000004 -13.344787 -49.376588 -32.144564 14.432304 -2.381892 -1.419603 6.136590 26.565941 21.890271 33.974488 -4.550500 -0.000000 0.000003 -1167.414075 -527.690361 -430.230173 0.000013 -0.000001 -11.106501 729.193072 -22.979502 715.243367 0.000003 -0.000007 -12.874303 -285.084774 2.151954 58.465361 2.431900 0.469599 -2.489395 -336.926620 -27.868234 25.454407 -0.000008 -0.000013 -18.200205 333.380850 50.886159 17.776711 -0.000002 -0.000003 -16.279896 -9.614467 40.204758 -12.904951 -1.988007 -0.073498 -2.712992 -47.798460 -37.561167 -26.648377 -0.000000 -0.000010 -19.547798 -1824.077095 38.184142 8.947664 -0.000000 0.000008 -14.881181 2239.691593 79.037139 -403.967659
68.456802 -40.498295 42.976803 4337.862540 13.902999 -15.442498 -0.780003 1.005808 5.403096 14.687010 -11.337673 3.511663 -0.000002 0.000006 4.236804 -5.328146 0.812223 -0.087342 -0.000002 0.000010 9.874399 -28.393959 -9.524412 33.858108 0.000008 -0.000001 2.173891 -3.105348 4.005123 -5.416542 2.681596 -0.377593 5.432504 0.422749 -1.164009 1.002705 5.161495 -0.000002 -0.000001 159.089422 -171.147752 96.380950 0.000007 0.000000 -10.869093 -3.197584 -7.225132 4.379981 0.000008 0.000000 -13.344814 -49.359656 -32.144940 14.418423 -2.381898 -1.419602 6.136594 26.489883 21.815472 34.152363 -4.550494 -0.000004 0.000010 -1167.218240 -527.617142 -430.263068 -0.000002 0.000001 -11.106495 729.224764 -22.867895 715.284840 0.000001 -0.000008 -12.874287 -284.934237 2.131688 58.643308 2.431898 0.469602 -2.489403 -336.852745 -27.699781 25.398364 0.000002 -0.000010 -18.200203 334.086354 50.856653 17.275381 0.000000 -0.000003 -16.279903 -10.403043 40.308587 -12.407565 -1.987993 -0.073494 -2.713003 -47.422096 -37.477200 -26.349751 0.000011 0.000004 -19.547802 -1821.587409 39.099438 7.875271 -0.000007 0.000011 -14.881196 2233.061610 78.373989 -398.795785
68.460899 -40.497795 42.997299 4337.753694 13.968222 -15.556837 -0.780005 1.005803 5.403094 14.789796 -11.355749 3.626270 -0.000000 -0.000004 4.236797 -5.332273 0.801510 -0.087584 0.000000 0.000003 9.874398 -28.379748 -9.636902 33.938588 0.000005 0.000001 2.173885 -3.033711 4.017561 -5.439997 2.681608 -0.377600 5.432500 0.442981 -1.168566 1.151427 5.161497 0.000005 -0.000003 159.092468 -170.877440 96.270540 0.000004 0.000001 -10.869106 -3.533447 -7.196794 4.427901 0.000004 -0.000003 -13.344806 -49.369410 -32.142484 14.360744 -2.381903 -1.419601 6.136598 26.461312 21.797972 34.156577 -4.550494 -0.000011 0.000002 -1167.113547 -527.581843 -430.286700 0.000007 -0.000001 -11.106492 729.133458 -22.772095 715.241345 -0.000005 -0.000001 -12.874298 -284.694415 2.080998 58.801317 2.431899 0.469604 -2.489397 -336.687017 -27.653085 25.491022 0.000002 -0.000012 -18.200203 334.364671 50.813950 17.034809 -0.000005 0.000007 -16.279896 -11.011755 40.317780 -12.006169 -1.987994 -0.073490 -2.712996 -47.205336 -37.566525 -26.199188 0.000000 0.000003 -19.547794 -1819.495732 39.936878 7.002618 -0.000011 0.000012 -14.881189 2227.615163 77.708135 -394.466374
68.465698 -40.497597 43.015305 4337.642663 14.056995 -15.629549 -0.779993 1.005805 5.403097 14.925690 -11.409706 3.720853 0.000001 -0.000004 4.236798 -5.350281 0.786904 -0.089804 -0.000001 -0.000003 9.874395 -28.362200 -9.723491 34.003830 -0.000007 0.000006 2.173891 -2.983041 4.042192 -5.444627 2.681599 -0.377597 5.432493 0.460220 -1.169710 1.297963 5.161507 -0.000006 -0.000001 159.048263 -170.964197 96.214150 0.000006 0.000000 -10.869086 -3.528881 -7.156113 4.397611 0.000000 -0.000003 -13.344814 -49.364851 -32.128677 14.292436 -2.381902 -1.419600 6.136592 26.433129 21.744781 34.143808 -4.550498 -0.000001 -0.000003 -1167.027213 -527.613863 -430.354210 -0.000007 0.000005 -11.106503 728.952759 -22.687974 715.171787 -0.000002 0.000006 -12.874288 -284.474346 2.058860 58.785662 2.431911 0.469601 -2.489401 -336.536671 -27.646630 25.538451 0.000000 -0.000006 -18.200203 334.814589 50.788979 16.700789 -0.000000 0.000001 -16.279902 -11.736002 40.329354 -11.526672 -1.987997 -0.073496 -2.712999 -46.883265 -37.613176 -25.974899 0.000001 0.000009 -19.547800 -1814.336043 41.031463 4.417475 -0.000012 0.000007 -14.881192 2220.691646 76.531778 -391.036690
68.468109 -40.492695 43.029099 4337.675011 14.210003 -15.643041 -0.779996 1.005805 5.403100 14.955785 -11.598054 3.756330 0.000001 0.000004 4.236803 -5.385474 0.780729 -0.091414 -0.000004 -0.000002 9.874403 -28.186041 -9.724477 33.949339 0.000005 0.000005 2.173896 -3.106026 4.038982 -5.350271 2.681600 -0.377604 5.432502 0.485034 -1.175461 1.422598 5.161504 -0.000004 -0.000002 158.950591 -171.639293 96.221034 0.000006 0.000000 -10.869102 -2.945310 -7.128591 4.311361 0.000006 0.000003 -13.344797 -49.309437 -32.136771 14.268929 -2.381914 -1.419601 6.136595 26.432332 21.681040 34.104507 -4.550495 -0.000005 0.000006 -1166.967435 -527.729375 -430.458384 0.000002 -0.000004 -11.106504 728.787741 -22.584051 715.155831 0.000002 -0.000004 -12.874306 -284.374188 2.083698 58.819608 2.431906 0.469603 -2.489393 -336.537709 -27.793812 25.523203 0.000002 -0.000005 -18.200203 335.183774 50.781876 16.422321 -0.000003 0.000002 -16.279900 -12.497651 40.253337 -10.939120 -1.987990 -0.073494 -2.712997 -46.814981 -37.651336 -25.949752 -0.000007 0.000002 -19.547796 -1814.397460 41.345369 4.359747 -0.000007 -0.000001 -14.881189 2217.849194 76.299709 -387.636130
68.473404 -40.490700 43.045303 4337.636106 14.270820 -15.720495 -0.779999 1.005799 5.403107 15.031090 -11.640624 3.836279 0.000004 0.000007 4.236799 -5.423976 0.769890 -0.093532 0.000007 0.000002 9.874395 -28.155186 -9.786038 33.967914 0.000012 0.000002 2.173892 -3.097577 4.138690 -5.272921 2.681607 -0.377605 5.432498 0.540995 -1.205078 1.536602 5.161503 -0.000003 0.000003 158.879038 -171.260409 96.175586 0.000007 0.000000 -10.869102 -3.405277 -7.035515 4.299140 0.000002 -0.000005 -13.344818 -49.265847 -32.165003 14.248795 -2.381893 -1.419604 6.136589 26.440948 21.622236 34.073211 -4.550496 -0.000010 -0.000003 -1166.919460 -527.887726 -430.551411 0.000004 0.000000 -11.106519 728.660809 -22.465037 715.169164 -0.000002 0.000006 -12.874294 -284.521748 2.081530 58.363304 2.431904 0.469589 -2.489392 -336.558500 -27.805779 25.523459 -0.000000 -0.000013 -18.200199 335.480259 50.729355 16.182436 -0.000002 0.000005 -16.279900 -13.244019 40.122088 -10.229011 -1.987992 -0.073502 -2.712990 -46.814584 -37.660895 -25.887669 -0.000010 0.000002 -19.547794 -1814.218018 41.276998 4.208254 0.000000 -0.000003 -14.881184 2217.923725 76.288234 -387.784837
